<?xml version="1.0" encoding="UTF-8" standalone="no"?>
<!-- Created with Inkscape (http://www.inkscape.org/) -->

<svg
   xmlns:dc="http://purl.org/dc/elements/1.1/"
   xmlns:cc="http://creativecommons.org/ns#"
   xmlns:rdf="http://www.w3.org/1999/02/22-rdf-syntax-ns#"
   xmlns:svg="http://www.w3.org/2000/svg"
   xmlns="http://www.w3.org/2000/svg"
   xmlns:sodipodi="http://sodipodi.sourceforge.net/DTD/sodipodi-0.dtd"
   xmlns:inkscape="http://www.inkscape.org/namespaces/inkscape"
   width="210mm"
   height="297mm"
   viewBox="0 0 210 297"
   version="1.1"
   id="svg1548"
   inkscape:version="0.92.3 (2405546, 2018-03-11)"
   sodipodi:docname="Buttone panel.svg">
  <defs
     id="defs1542" />
  <sodipodi:namedview
     id="base"
     pagecolor="#ffffff"
     bordercolor="#666666"
     borderopacity="1.0"
     inkscape:pageopacity="0.0"
     inkscape:pageshadow="2"
     inkscape:zoom="11.2"
     inkscape:cx="124.53318"
     inkscape:cy="227.54287"
     inkscape:document-units="mm"
     inkscape:current-layer="layer1"
     showgrid="true"
     inkscape:window-width="1618"
     inkscape:window-height="1027"
     inkscape:window-x="1974"
     inkscape:window-y="-8"
     inkscape:window-maximized="1"
     inkscape:snap-bbox="false"
     inkscape:object-paths="true"
     inkscape:bbox-nodes="true"
     inkscape:snap-nodes="true">
    <inkscape:grid
       type="xygrid"
       id="grid1550"
       units="mm"
       spacingx="0.5"
       spacingy="0.5"
       empspacing="10" />
  </sodipodi:namedview>
  <metadata
     id="metadata1545">
    <rdf:RDF>
      <cc:Work
         rdf:about="">
        <dc:format>image/svg+xml</dc:format>
        <dc:type
           rdf:resource="http://purl.org/dc/dcmitype/StillImage" />
        <dc:title></dc:title>
      </cc:Work>
    </rdf:RDF>
  </metadata>
  <g
     inkscape:label="Layer 1"
     inkscape:groupmode="layer"
     id="layer1">
    <path
       style="opacity:1;vector-effect:none;fill:#dedede;fill-opacity:1;stroke:#000000;stroke-width:0.29798195;stroke-linecap:butt;stroke-linejoin:miter;stroke-miterlimit:4;stroke-dasharray:none;stroke-dashoffset:0;stroke-opacity:1;paint-order:normal"
       d="m 20,212 v 15 l 0,20 h 30 l 0.0011,-19.97857 L 35,227 v -15 z"
       id="rect1552"
       inkscape:connector-curvature="0"
       sodipodi:nodetypes="cccccccc" />
    <path
       style="fill:#ffffff;fill-opacity:1;stroke:#000000;stroke-width:0.26458332px;stroke-linecap:butt;stroke-linejoin:miter;stroke-opacity:1"
       d="m 25,213.99998 h 8 v 8 h -8 z"
       id="path2104"
       inkscape:connector-curvature="0" />
    <path
       d="m 25,219 2,-2 2,2 2,-2 2,2 v 3 h -8 z"
       style="fill:#000000;fill-opacity:1;stroke:#000000;stroke-width:0.26458332px;stroke-linecap:butt;stroke-linejoin:miter;stroke-opacity:1"
       id="path2114"
       inkscape:connector-curvature="0"
       sodipodi:nodetypes="cccccccc" />
    <path
       sodipodi:type="star"
       style="opacity:1;vector-effect:none;fill:#ffffff;fill-opacity:1;stroke:#000000;stroke-width:0.49925864;stroke-linecap:butt;stroke-linejoin:miter;stroke-miterlimit:4;stroke-dasharray:none;stroke-dashoffset:0;stroke-opacity:1;paint-order:normal"
       id="path2120"
       sodipodi:sides="5"
       sodipodi:cx="17.999998"
       sodipodi:cy="238"
       sodipodi:r1="4.6097722"
       sodipodi:r2="2.3048861"
       sodipodi:arg1="-0.70862627"
       sodipodi:arg2="-0.080307739"
       inkscape:flatsided="false"
       inkscape:rounded="-3.46945e-018"
       inkscape:randomized="0"
       d="m 21.499998,235 -1.202542,2.8151 1.637271,2.58655 -3.048924,-0.27378 -1.954009,2.35643 -0.681796,-2.9843 -2.844915,-1.1302 2.627551,-1.57062 0.195754,-3.05493 2.305712,2.0136 z"
       inkscape:transform-center-x="0.2079928"
       inkscape:transform-center-y="0.074164249"
       transform="matrix(0.57295869,0.22475208,-0.24028017,0.53593127,73.877181,100.56334)" />
    <g
       id="g2166"
       transform="translate(-0.867708,0.0433)">
      <ellipse
         ry="2.3499987"
         rx="2.4055059"
         cy="231.86407"
         cx="35.810825"
         id="path2122"
         style="opacity:1;vector-effect:none;fill:#ffffff;fill-opacity:1;stroke:#000000;stroke-width:0.30000001;stroke-linecap:butt;stroke-linejoin:miter;stroke-miterlimit:4;stroke-dasharray:none;stroke-dashoffset:0;stroke-opacity:1;paint-order:normal" />
      <path
         inkscape:connector-curvature="0"
         id="path2124"
         d="m 35.867708,229.87649 v 2.08021 l -1.465141,0.41604"
         style="fill:none;stroke:#000000;stroke-width:0.26458332px;stroke-linecap:butt;stroke-linejoin:miter;stroke-opacity:1" />
    </g>
    <g
       id="g2157"
       transform="matrix(0.64530904,0,0,0.6721953,16.461116,75.21741)">
      <g
         id="g2162"
         transform="matrix(0.83312941,0.52100481,-0.58712586,0.83312941,130.24473,13.462165)">
        <path
           style="fill:#ffffff;fill-opacity:1;stroke:#000000;stroke-width:0.16500001;stroke-linecap:butt;stroke-linejoin:miter;stroke-miterlimit:4;stroke-dasharray:none;stroke-opacity:1"
           d="m 52.945627,231.49994 h 1.470677 l 1e-6,1.99428 -0.294136,0.99714 v -0.99714 l -0.294135,1.99428 -0.294137,-1.99428 v 1.49571 l -0.294134,-1.49571 -0.294135,1.49571 z"
           id="path2152"
           inkscape:connector-curvature="0"
           sodipodi:nodetypes="ccccccccccc" />
        <rect
           style="opacity:1;vector-effect:none;fill:#ffffff;fill-opacity:1;stroke:#000000;stroke-width:0.30000001;stroke-linecap:butt;stroke-linejoin:miter;stroke-miterlimit:4;stroke-dasharray:none;stroke-dashoffset:0;stroke-opacity:1;paint-order:normal"
           id="rect2148"
           width="2.5"
           height="5.5"
           x="52.5"
           y="227" />
        <path
           sodipodi:type="star"
           style="opacity:1;vector-effect:none;fill:#ffffff;fill-opacity:1;stroke:#000000;stroke-width:0.66449815;stroke-linecap:butt;stroke-linejoin:miter;stroke-miterlimit:4;stroke-dasharray:none;stroke-dashoffset:0;stroke-opacity:1;paint-order:normal"
           id="path2150"
           sodipodi:sides="3"
           sodipodi:cx="50.499996"
           sodipodi:cy="226.5"
           sodipodi:r1="5.1478186"
           sodipodi:r2="3.7360146"
           sodipodi:arg1="0.50709814"
           sodipodi:arg2="1.5542957"
           inkscape:flatsided="true"
           inkscape:rounded="-3.46945e-018"
           inkscape:randomized="0"
           d="m 55,229 -8.915069,0.14712 4.330127,-7.79424 z"
           inkscape:transform-center-x="0.0049971841"
           inkscape:transform-center-y="-0.20074688"
           transform="matrix(0.44915166,0,0,0.4537974,31.029922,123.83757)" />
      </g>
    </g>
    <path
       style="fill:#000000;fill-opacity:1;stroke:#000000;stroke-width:0.24625203px;stroke-linecap:butt;stroke-linejoin:miter;stroke-opacity:1"
       d="m 30.654046,230.35111 v 3.29778 L 31.836066,232 Z"
       id="path2168"
       inkscape:connector-curvature="0"
       sodipodi:nodetypes="cccc" />
    <path
       sodipodi:nodetypes="cccc"
       inkscape:connector-curvature="0"
       id="path2170"
       d="m 38.123126,230.31913 v 3.29778 l 1.18202,-1.64889 z"
       style="fill:#000000;fill-opacity:1;stroke:#000000;stroke-width:0.24625203px;stroke-linecap:butt;stroke-linejoin:miter;stroke-opacity:1" />
    <path
       style="fill:#818181;stroke:none;stroke-width:0.26499999;stroke-linecap:round;stroke-linejoin:round;stroke-miterlimit:4;stroke-dasharray:none;stroke-opacity:1;fill-opacity:1"
       d="m 45,230.5 h 1.5 l 0.0049,-1.98782 -13.597336,0.0334 L 30,224 l -0.5,0.5 0,-1.5 H 31 l -0.5,0.5 3,4.5 H 47 l 0,3 h -2 z"
       id="path2174"
       inkscape:connector-curvature="0"
       sodipodi:nodetypes="cccccccccccccc" />
    <path
       sodipodi:nodetypes="cccccccccccccc"
       inkscape:connector-curvature="0"
       id="path2178"
       d="m 45,230.5 2,0 v 5 l -17,0 H 27.5 L 27,236 v -1.5 h 1.5 L 28,235 30.592436,234.95442 46.5,235 v -4 H 45 Z"
       style="fill:#2b2b2b;fill-opacity:1;stroke:none;stroke-width:0.26499999;stroke-linecap:round;stroke-linejoin:round;stroke-miterlimit:4;stroke-dasharray:none;stroke-opacity:1" />
    <path
       id="circle2182"
       style="opacity:1;vector-effect:none;fill:#9e9e9e;fill-opacity:1;stroke:#000000;stroke-width:0.14753582;stroke-linecap:round;stroke-linejoin:round;stroke-miterlimit:4;stroke-dasharray:none;stroke-dashoffset:0;stroke-opacity:1;paint-order:normal"
       d="m 35.046951,239.16755 a 2.3792,2.3792523 0 0 0 -0.260943,0.0173 l -0.469239,0.599 -0.758375,-0.0921 a 2.3792,2.3792523 0 0 0 -0.366242,0.36884 l 0.09177,0.75608 -0.600716,0.4707 a 2.3792,2.3792523 0 0 0 -0.01525,0.25951 2.3792,2.3792523 0 0 0 0.01698,0.26095 l 0.598989,0.46925 -0.09206,0.75867 a 2.3792,2.3792523 0 0 0 0.368831,0.36626 l 0.756074,-0.0921 0.470965,0.60102 a 2.3792,2.3792523 0 0 0 0.259217,0.0153 2.3792,2.3792523 0 0 0 0.260944,-0.0173 l 0.469526,-0.599 0.758087,0.0923 a 2.3792,2.3792523 0 0 0 0.36653,-0.36884 l -0.09206,-0.75638 0.601293,-0.47069 a 2.3792,2.3792523 0 0 0 0.01496,-0.25951 2.3792,2.3792523 0 0 0 -0.01726,-0.26123 l -0.598991,-0.46897 0.09235,-0.75839 a 2.3792,2.3792523 0 0 0 -0.368835,-0.36615 l -0.756074,0.0918 -0.470966,-0.60102 a 2.3792,2.3792523 0 0 0 -0.259505,-0.0153 z m 1.39193,2.37937 a 1.391832,1.3918626 0 0 1 -1.391832,1.39186 1.391832,1.3918626 0 0 1 -1.391832,-1.39186 1.391832,1.3918626 0 0 1 1.391832,-1.39186 1.391832,1.3918626 0 0 1 1.391832,1.39186 z"
       inkscape:connector-curvature="0" />
    <path
       sodipodi:nodetypes="cccc"
       inkscape:connector-curvature="0"
       id="path2210"
       d="m 25.600425,240.85794 v 1.94456 l 1.333549,-0.97228 z"
       style="fill:#000000;fill-opacity:1;stroke:#000000;stroke-width:0.20085016px;stroke-linecap:butt;stroke-linejoin:miter;stroke-opacity:1" />
    <path
       style="fill:#000000;fill-opacity:1;stroke:#000000;stroke-width:0.20085016px;stroke-linecap:butt;stroke-linejoin:miter;stroke-opacity:1"
       d="m 26.600425,240.85794 v 1.94456 l 1.333549,-0.97228 z"
       id="path2212"
       inkscape:connector-curvature="0"
       sodipodi:nodetypes="cccc" />
    <path
       style="fill:#000000;fill-opacity:1;stroke:#000000;stroke-width:0.20085016px;stroke-linecap:butt;stroke-linejoin:miter;stroke-opacity:1"
       d="m 40.995988,240.85794 v 1.94456 l 1.333549,-0.97228 z"
       id="path2214"
       inkscape:connector-curvature="0"
       sodipodi:nodetypes="cccc" />
    <path
       sodipodi:nodetypes="cccc"
       inkscape:connector-curvature="0"
       id="path2216"
       d="m 41.995988,240.85794 v 1.94456 l 1.333549,-0.97228 z"
       style="fill:#000000;fill-opacity:1;stroke:#000000;stroke-width:0.20085016px;stroke-linecap:butt;stroke-linejoin:miter;stroke-opacity:1" />
  </g>
  <g
     inkscape:groupmode="layer"
     id="layer21"
     inkscape:label="Zeichenhilfen"
     style="display:none">
    <rect
       style="opacity:1;vector-effect:none;fill:#bcbcbc;fill-opacity:1;stroke:none;stroke-width:0.27982289;stroke-linecap:butt;stroke-linejoin:miter;stroke-miterlimit:4;stroke-dasharray:none;stroke-dashoffset:0;stroke-opacity:1;paint-order:normal"
       id="rect2100"
       width="3.5823913"
       height="34"
       x="20.417608"
       y="212.5" />
  </g>
</svg>
